<svg xmlns="http://www.w3.org/2000/svg" width="15" height="14.532" viewBox="0 0 15 14.532">
  <g id="Group_24403" data-name="Group 24403" transform="translate(-43.015 -26.082)">
    <path id="Path_7" data-name="Path 7" d="M57.611,26.366a1.168,1.168,0,0,0-1.647.12l-6.078,7.033L48.45,31.856a1.167,1.167,0,1,0-1.767,1.526L49,36.068a1.168,1.168,0,0,0,1.767,0l6.961-8.055A1.167,1.167,0,0,0,57.611,26.366Z" fill="#1190ad"/>
    <path id="Path_8" data-name="Path 8" d="M55.622,33.436a.584.584,0,0,0-.584.584,5.428,5.428,0,1,1-5.428-5.428,5.49,5.49,0,0,1,.9.073.584.584,0,1,0,.191-1.152,6.664,6.664,0,0,0-1.088-.089,6.6,6.6,0,1,0,6.6,6.6A.584.584,0,0,0,55.622,33.436Z" fill="#1190ad"/>
  </g>
</svg>
