<svg xmlns="http://www.w3.org/2000/svg" width="45.039" height="55.051" viewBox="0 0 45.039 55.051">
  <g id="Group_24797" data-name="Group 24797" transform="translate(-3 -1)">
    <path id="Path_27240" data-name="Path 27240" d="M43.035,16.013a2.5,2.5,0,0,0-2.5,2.5v28A4.8,4.8,0,0,1,35.5,51.043H15.536a4.8,4.8,0,0,1-5.029-4.526v-28a2.5,2.5,0,0,0-5,0v28a9.8,9.8,0,0,0,10.034,9.531H35.5a9.8,9.8,0,0,0,10.034-9.531v-28A2.5,2.5,0,0,0,43.035,16.013Zm2.5-7.507H35.528v-5a2.5,2.5,0,0,0-2.5-2.5H18.013a2.5,2.5,0,0,0-2.5,2.5v5H5.5a2.5,2.5,0,0,0,0,5H45.537a2.5,2.5,0,1,0,0-5Zm-25.022,0V6H30.524v2.5Z" transform="translate(0 0)" fill="#ff4b4a"/>
    <path id="Path_27241" data-name="Path 27241" d="M14,29.017V11.5a2.5,2.5,0,0,0-5,0V29.017a2.5,2.5,0,1,0,5,0Zm10.009,0V11.5a2.5,2.5,0,1,0-5,0V29.017a2.5,2.5,0,1,0,5,0Z" transform="translate(9.013 12.017)" fill="#ff4b4a"/>
  </g>
</svg>
