<svg xmlns="http://www.w3.org/2000/svg" width="23.978" height="24" viewBox="0 0 23.978 24">
  <path id="Union_9" data-name="Union 9" d="M1.287,24A1.277,1.277,0,0,1,0,22.713V4.336A1.293,1.293,0,0,1,1.287,3.048H14.262L11.688,5.623H2.575v15.8h15.8V12.338l2.575-2.6V22.713A1.293,1.293,0,0,1,19.665,24Zm4.342-6.513.353-2.979a.852.852,0,0,1,.227-.48L7.32,12.893l3.812,3.786L10,17.815a.852.852,0,0,1-.48.227L6.538,18.4q-.043,0-.085,0A.809.809,0,0,1,5.629,17.487ZM8.79,11.45l8.122-8.122,3.766,3.766-8.122,8.122Zm9.587-9.613,1.59-1.59a.808.808,0,0,1,1.161,0l2.625,2.625h0a.8.8,0,0,1-.025,1.136L22.138,5.6Z" fill="#fff"/>
</svg>
