<svg xmlns="http://www.w3.org/2000/svg" width="9.459" height="15.08" viewBox="0 0 9.459 15.08">
  <path id="Path_9" data-name="Path 9" d="M15.686,4.673V3.549a.127.127,0,0,0-.133-.131H13.486l-.035-.179h0a3.475,3.475,0,0,0-.663-1.494l-.281-.36h3.024a.125.125,0,0,0,.131-.131V.131A.127.127,0,0,0,15.532,0H6.358a.127.127,0,0,0-.131.131V1.6a.135.135,0,0,0,.131.133h1.6c1.632,0,2.691.461,3.153,1.369l.162.321H6.358a.127.127,0,0,0-.131.131V4.675a.127.127,0,0,0,.131.131h5l-.073.277C10.937,6.384,9.628,7.1,7.6,7.1H6.358a.135.135,0,0,0-.131.133v1.4a.113.113,0,0,0,.035.085c2.132,2.268,3.845,4.324,5.5,6.311h0a.119.119,0,0,0,.106.052h2.149a.123.123,0,0,0,.119-.069.121.121,0,0,0,0-.135c-1.569-1.909-3.364-4.089-5.066-5.906l-.3-.319L9.211,8.6c2.4-.285,3.949-1.6,4.272-3.6l.031-.192h2.04a.129.129,0,0,0,.133-.133Z" transform="translate(-6.227 0)" fill="#fff"/>
</svg>
