<svg id="Calque_2" data-name="Calque 2" xmlns="http://www.w3.org/2000/svg" width="24.004" height="24.004" viewBox="0 0 24.004 24.004">
  <g id="Calque_2-2" data-name="Calque 2">
    <circle id="Ellipse_162" data-name="Ellipse 162" cx="1.667" cy="1.667" r="1.667" transform="translate(10.335 5.454)" fill="#f46036"/>
    <path id="Path_27250" data-name="Path 27250" d="M201.774,194.507V200A1.387,1.387,0,1,1,199,200v-5.494a1.387,1.387,0,0,1,2.774,0Z" transform="translate(-188.385 -182.818)" fill="#f46036"/>
    <path id="Path_27251" data-name="Path 27251" d="M12,0A12,12,0,1,0,24,12,12,12,0,0,0,12,0ZM18.98,18.98a9.868,9.868,0,1,1,0-13.956,9.868,9.868,0,0,1,0,13.956Z" fill="#f46036"/>
    <path id="Path_27252" data-name="Path 27252" d="M12,0A12,12,0,1,0,24,12,12,12,0,0,0,12,0ZM18.98,18.98a9.868,9.868,0,1,1,0-13.956,9.868,9.868,0,0,1,0,13.956Z" fill="#f46036"/>
  </g>
</svg>
