<svg xmlns="http://www.w3.org/2000/svg" width="10.313" height="15" viewBox="0 0 10.313 15">
  <path id="Path_10" data-name="Path 10" d="M13.426,11.7a2.788,2.788,0,0,1,.883.632.989.989,0,0,1,.274.643c0,.507-.5.983-1.3,1.343a8.558,8.558,0,0,1-3.386.624,8.558,8.558,0,0,1-3.386-.624c-.8-.36-1.3-.836-1.3-1.343h0a.988.988,0,0,1,.274-.643,2.788,2.788,0,0,1,.883-.632.233.233,0,1,0-.2-.419,3.241,3.241,0,0,0-1.031.745,1.441,1.441,0,0,0-.39.95c0,.709.6,1.333,1.581,1.77a9.016,9.016,0,0,0,3.576.667,9.007,9.007,0,0,0,3.576-.667c.977-.437,1.581-1.061,1.581-1.77h0a1.441,1.441,0,0,0-.39-.95,3.242,3.242,0,0,0-1.031-.745.233.233,0,1,0-.2.419ZM9.9,3.533a2.436,2.436,0,1,0,1.722.714A2.436,2.436,0,0,0,9.9,3.533Zm-3.7-1.588a5.25,5.25,0,0,1,7.4,0,4.823,4.823,0,0,1,1.429,3.476,6.488,6.488,0,0,1-1.41,3.9l-3.163,4.1a.7.7,0,0,1-1.117,0l-3.163-4.1a6.489,6.489,0,0,1-1.411-3.9,4.821,4.821,0,0,1,1.43-3.477Z" transform="translate(-4.74 -0.417)" fill="#888" fill-rule="evenodd"/>
</svg>
