<svg xmlns="http://www.w3.org/2000/svg" width="30.361" height="28.483" viewBox="0 0 30.361 28.483">
  <g id="Group_24299" data-name="Group 24299" transform="translate(0 0)">
    <g id="Group_24298" data-name="Group 24298">
      <path id="Path_41" data-name="Path 41" d="M27.212,11.685a3.44,3.44,0,1,0-3.44-3.449A3.449,3.449,0,0,0,27.212,11.685Z" transform="translate(-0.896 -2.064)" fill="#464eb8"/>
      <path id="Path_42" data-name="Path 42" d="M29.753,12.643H16.876v-1.2a6.066,6.066,0,0,0,.807.088c.03,0,.061,0,.091,0,.117,0,.233-.008.348-.017l.117-.011c.132-.015.262-.034.39-.059l.024,0a4.7,4.7,0,0,0,2.9-1.893,3.964,3.964,0,0,0,.235-.347l.021-.035c.056-.094.1-.191.153-.289.021-.043.043-.085.062-.128.05-.113.1-.228.138-.345l.01-.029a4.929,4.929,0,0,0-.548-4.207,4.737,4.737,0,0,0-.742-.842c-.058-.05-.113-.1-.173-.15a4.716,4.716,0,0,0-.754-.508q-.2-.109-.413-.2A4.087,4.087,0,0,0,19.1,2.3c-.086-.027-.176-.046-.264-.068s-.155-.04-.235-.054-.133-.02-.2-.03c-.115-.016-.23-.031-.347-.04l-.12-.006c-.118-.006-.237-.006-.356,0a5.456,5.456,0,0,0-1.814.406c-.108.049-.217.1-.319.154A4.793,4.793,0,0,0,13.2,5.372a5,5,0,0,0-.061,2.66l.007.025.032.113c.013.045.028.089.042.134s.026.072.04.108H2.857A1.691,1.691,0,0,0,1.168,10.1V22.43a1.691,1.691,0,0,0,1.689,1.689H9.442c.009.039.019.076.028.114a8.227,8.227,0,0,0,7.827,6.18,8.249,8.249,0,0,0,7.119-4.448l.061.019a5.3,5.3,0,0,0,7.051-4.952V14.414A1.775,1.775,0,0,0,29.753,12.643Z" transform="translate(-1.168 -2.096)" fill="#464eb8"/>
      <g id="Group_24296" data-name="Group 24296" transform="translate(8.233 0)">
        <g id="Group_24295" data-name="Group 24295" transform="translate(0 10.547)">
          <path id="Path_43" data-name="Path 43" d="M25.232,14.325a1.767,1.767,0,0,0-1.718-1.807H16.5a.468.468,0,0,0-.468.469v9.522a.8.8,0,0,1-.795.8H9.771a.468.468,0,0,0-.458.563A8.2,8.2,0,0,0,17.2,30.454a8.255,8.255,0,0,0,8.032-8.432Z" transform="translate(-9.303 -12.518)" fill="#7b83eb"/>
        </g>
        <path id="Path_44" data-name="Path 44" d="M17.542,11.526c.03,0,.061,0,.091,0q.176,0,.348-.017L18.1,11.5c.132-.015.262-.034.39-.059l.024,0a4.7,4.7,0,0,0,2.9-1.893,3.965,3.965,0,0,0,.235-.347l.021-.035c.056-.094.1-.191.153-.289.021-.043.043-.085.062-.128.05-.113.1-.228.138-.345l.01-.029a4.929,4.929,0,0,0-.548-4.207,4.737,4.737,0,0,0-.742-.842c-.058-.05-.113-.1-.173-.15a4.716,4.716,0,0,0-.754-.508q-.2-.109-.413-.2A4.088,4.088,0,0,0,18.96,2.3c-.086-.027-.176-.046-.264-.068s-.155-.04-.235-.054-.132-.02-.2-.03c-.115-.016-.23-.031-.347-.04L17.8,2.1c-.118-.005-.237,0-.356,0a5.448,5.448,0,0,0-1.814.406c-.108.049-.217.1-.319.154a4.793,4.793,0,0,0-2.247,2.714A5,5,0,0,0,13,8.033L13,8.058l.032.113c.013.045.028.089.042.134s.04.111.061.167h-.009A4.63,4.63,0,0,0,17.542,11.526Z" transform="translate(-9.261 -2.097)" fill="#7b83eb"/>
      </g>
      <g id="Group_24297" data-name="Group 24297" transform="translate(0 6.316)">
        <path id="Path_45" data-name="Path 45" d="M15.186,8.337H2.857a1.691,1.691,0,0,0-1.689,1.689V22.355a1.691,1.691,0,0,0,1.689,1.689H15.186a1.691,1.691,0,0,0,1.689-1.689V10.027A1.691,1.691,0,0,0,15.186,8.337Z" transform="translate(-1.168 -8.337)" fill="#464eb8"/>
        <path id="Path_46" data-name="Path 46" d="M12.08,11.729H5.771a.457.457,0,0,0-.457.457v1.15a.457.457,0,0,0,.457.457H7.806V20.2a.457.457,0,0,0,.457.457H9.616a.457.457,0,0,0,.457-.457V13.792H12.08a.457.457,0,0,0,.457-.457v-1.15A.457.457,0,0,0,12.08,11.729Z" transform="translate(-1.118 -8.296)" fill="#fff"/>
      </g>
    </g>
  </g>
</svg>
