<svg id="_6296671_microsoft_office_office365_outlook_icon" data-name="6296671_microsoft_office_office365_outlook_icon" xmlns="http://www.w3.org/2000/svg" width="30.142" height="27.832" viewBox="0 0 30.142 27.832">
  <g id="Group_24300" data-name="Group 24300" transform="translate(8.126 0)">
    <path id="Path_47" data-name="Path 47" d="M26.861,5.155H6.662V1.937A.947.947,0,0,1,7.6.974H25.9a.952.952,0,0,1,.963.963V5.155Z" transform="translate(-6.662 -0.974)" fill="#0464b8"/>
    <rect id="Rectangle_7202" data-name="Rectangle 7202" width="6.741" height="6.247" transform="translate(0 4.181)" fill="#0377d4"/>
    <rect id="Rectangle_7203" data-name="Rectangle 7203" width="6.741" height="6.247" transform="translate(6.741 4.181)" fill="#29a7eb"/>
    <rect id="Rectangle_7204" data-name="Rectangle 7204" width="6.741" height="6.247" transform="translate(13.481 4.181)" fill="#4fd8ff"/>
    <rect id="Rectangle_7205" data-name="Rectangle 7205" width="6.741" height="6.247" transform="translate(0 10.428)" fill="#1681d7"/>
    <rect id="Rectangle_7206" data-name="Rectangle 7206" width="6.741" height="6.247" transform="translate(6.741 10.428)" fill="#0178d4"/>
    <rect id="Rectangle_7207" data-name="Rectangle 7207" width="6.741" height="6.247" transform="translate(13.481 10.428)" fill="#29a7eb"/>
    <rect id="Rectangle_7208" data-name="Rectangle 7208" width="6.741" height="6.247" transform="translate(6.741 16.652)" fill="#0464b8"/>
    <rect id="Rectangle_7209" data-name="Rectangle 7209" width="6.741" height="6.247" transform="translate(13.481 16.652)" fill="#1681d7"/>
  </g>
  <path id="Path_48" data-name="Path 48" d="M24.984,13.753l-1.55.916v-2.63l1.527.846A.5.5,0,0,1,24.984,13.753Z" transform="translate(4.914 1.302)" fill="#042071"/>
  <path id="Path_49" data-name="Path 49" d="M28.526,13.533l-.141.094h0l-.164.094-1.245.728v-.023L6.214,26.309H27.141a1.6,1.6,0,0,0,1.6-1.6l.023-11.6A.45.45,0,0,1,28.526,13.533Z" transform="translate(1.372 1.522)" fill="#168fde"/>
  <g id="Group_24301" data-name="Group 24301" transform="translate(6.2 14.914)">
    <path id="Path_50" data-name="Path 50" d="M27.612,26.261H6.662a1.6,1.6,0,0,1-1.6-1.6V13.344Z" transform="translate(-5.065 -13.344)" fill="#29a7eb"/>
  </g>
  <path id="Path_51" data-name="Path 51" d="M13.873,21.4H1.425a1.514,1.514,0,0,1-1.5-1.5V7.639a1.514,1.514,0,0,1,1.5-1.5H13.873a1.514,1.514,0,0,1,1.5,1.5V19.9A1.5,1.5,0,0,1,13.873,21.4Z" transform="translate(0.078 0.088)" fill="#1681d7"/>
  <g id="Group_24302" data-name="Group 24302" transform="translate(3.781 9.606)">
    <path id="Path_52" data-name="Path 52" d="M7,17.631c-2.419,0-3.946-1.832-3.946-4.275,0-2.584,1.668-4.415,4.063-4.415,2.49,0,3.946,1.855,3.946,4.251.023,2.842-1.715,4.439-4.063,4.439ZM7.1,16.41c1.5,0,2.349-1.386,2.349-3.147,0-1.6-.8-3.077-2.349-3.077s-2.372,1.456-2.372,3.147S5.571,16.41,7.1,16.41Z" transform="translate(-3.058 -8.941)" fill="#fff"/>
  </g>
  <path id="Path_53" data-name="Path 53" d="M14.342,7.266v12.4a1.514,1.514,0,0,1-1.5,1.5H5.065v1.339h9.019a1.514,1.514,0,0,0,1.5-1.5V8.746A1.475,1.475,0,0,0,14.342,7.266Z" transform="translate(1.136 0.32)" opacity="0.2"/>
</svg>
