<svg id="_9045003_phone_voice_filled_icon" data-name="9045003_phone_voice_filled_icon" xmlns="http://www.w3.org/2000/svg" width="30" height="30" viewBox="0 0 30 30">
  <path id="Path_54" data-name="Path 54" d="M22.567,12.255h-1.9A2.856,2.856,0,0,0,17.813,9.4V7.5A4.76,4.76,0,0,1,22.567,12.255Z" transform="translate(-0.174 0.107)" fill="#00c43a"/>
  <path id="Path_55" data-name="Path 55" d="M26.371,12.308h-1.9a6.664,6.664,0,0,0-6.656-6.656V3.75A8.568,8.568,0,0,1,26.371,12.308Z" transform="translate(-0.174 0.054)" fill="#00c43a"/>
  <path id="Path_56" data-name="Path 56" d="M19.295,20.387l2.13-2.13a2.06,2.06,0,0,1,2.222-.456l2.594,1.038a2.06,2.06,0,0,1,1.295,1.914V25.47a2.06,2.06,0,0,1-2.172,2.062C7.181,26.4,3.509,11,2.826,5.1a2.056,2.056,0,0,1,2.049-2.29H9.509a2.06,2.06,0,0,1,1.913,1.3L12.459,6.7A2.06,2.06,0,0,1,12,8.924l-2.13,2.13S11.054,19.357,19.295,20.387Z" transform="translate(-0.389 0.04)" fill="#00c43a"/>
  <rect id="_Transparent_Rectangle_" data-name="&lt;Transparent Rectangle&gt;" width="30" height="30" fill="none"/>
</svg>
