<svg xmlns="http://www.w3.org/2000/svg" width="30" height="23.851" viewBox="0 0 30 23.851">
  <path id="Path_144" data-name="Path 144" d="M73.594,44.371a.475.475,0,0,1-.178.366l-11.26,8.952a.477.477,0,0,1-.5.056.469.469,0,0,1-.262-.422V49.011a20.053,20.053,0,0,0-14.878,7.135l-2.1,2.494a.455.455,0,0,1-.356.16.472.472,0,0,1-.16-.028.465.465,0,0,1-.309-.441v-.206A18.356,18.356,0,0,1,61.4,39.739V35.417a.466.466,0,0,1,.759-.366L73.415,44a.481.481,0,0,1,.178.375Z" transform="translate(-43.594 -34.948)" fill="#1190ad"/>
</svg>
