<svg xmlns="http://www.w3.org/2000/svg" width="15" height="15" viewBox="0 0 15 15">
  <g id="noun-sort-4864591" transform="translate(-5.682 -3.409)">
    <path id="Path_131" data-name="Path 131" d="M5.682,4.091a.682.682,0,0,1,.682-.682H20a.682.682,0,0,1,0,1.364H6.364a.682.682,0,0,1-.682-.682Z" fill="#1190ad" fill-rule="evenodd"/>
    <path id="Path_132" data-name="Path 132" d="M5.682,8.636a.682.682,0,0,1,.682-.682h10a.682.682,0,0,1,0,1.364h-10a.682.682,0,0,1-.682-.682Z" fill="#1190ad" fill-rule="evenodd"/>
    <path id="Path_133" data-name="Path 133" d="M5.682,13.182a.682.682,0,0,1,.682-.682h7.273a.682.682,0,0,1,0,1.364H6.364A.682.682,0,0,1,5.682,13.182Z" fill="#1190ad" fill-rule="evenodd"/>
    <path id="Path_134" data-name="Path 134" d="M5.682,17.727a.682.682,0,0,1,.682-.682H10a.682.682,0,1,1,0,1.364H6.364a.682.682,0,0,1-.682-.682Z" fill="#1190ad" fill-rule="evenodd"/>
  </g>
</svg>
